<svg width="18" height="19" viewBox="0 0 18 19" fill="none" xmlns="http://www.w3.org/2000/svg">
<g clip-path="url(#clip0_516_170)">
<path d="M14.2695 9.5V14C14.2695 14.414 13.9335 14.75 13.5195 14.75C13.1055 14.75 12.7695 14.414 12.7695 14V9.5C12.7695 9.086 13.1055 8.75 13.5195 8.75C13.9335 8.75 14.2695 9.086 14.2695 9.5ZM8.70453 5.53775L11.0078 13.8095C11.139 14.282 10.7843 14.75 10.293 14.75C9.96078 14.75 9.66978 14.5295 9.57903 14.21L9.09678 12.5H5.19228L4.71003 14.21C4.62003 14.5295 4.32828 14.75 3.99603 14.75C3.50553 14.75 3.15003 14.282 3.28128 13.8095L5.59953 5.4785C5.70528 5.0225 6.00528 4.6385 6.42303 4.42475C6.84903 4.20575 7.33803 4.19225 7.80228 4.38725C8.24253 4.57175 8.58003 5 8.70528 5.5385L8.70453 5.53775ZM8.67378 11L7.22703 5.87375C7.20528 5.78825 7.08378 5.78825 7.06278 5.87375L5.61603 11H8.67378ZM17.2703 8C16.8563 8 16.5203 8.336 16.5203 8.75V14.75C16.5203 15.9905 15.5108 17 14.2703 17H3.76953C2.52903 17 1.51953 15.9905 1.51953 14.75V4.25C1.51953 3.0095 2.52903 2 3.76953 2H9.76953C10.1835 2 10.5195 1.664 10.5195 1.25C10.5195 0.836 10.1835 0.5 9.76953 0.5H3.76953C1.70178 0.5 0.0195312 2.18225 0.0195312 4.25V14.75C0.0195312 16.8177 1.70178 18.5 3.76953 18.5H14.2695C16.3373 18.5 18.0195 16.8177 18.0195 14.75V8.75C18.0195 8.336 17.6835 8 17.2695 8H17.2703ZM12.1328 4.385L13.5338 4.97525L14.0925 6.374C14.2133 6.677 14.5065 6.875 14.8328 6.875C15.159 6.875 15.4515 6.67625 15.573 6.374L16.1288 4.9835L17.5193 4.42775C17.8223 4.307 18.0203 4.01375 18.0203 3.6875C18.0203 3.36125 17.8215 3.06875 17.5193 2.94725L16.1288 2.3915L15.573 1.001C15.4508 0.69875 15.1575 0.5 14.832 0.5C14.5065 0.5 14.2133 0.69875 14.0918 1.001L13.539 2.38325L12.159 2.906C11.8545 3.0215 11.6505 3.311 11.6445 3.6365C11.6385 3.96275 11.832 4.259 12.132 4.38575L12.1328 4.385Z" fill="#F208FD"/>
</g>
<defs>
<clipPath id="clip0_516_170">
<rect width="18" height="18" fill="white" transform="translate(0 0.5)"/>
</clipPath>
</defs>
</svg>
