<svg width="18" height="19" viewBox="0 0 18 19" fill="none" xmlns="http://www.w3.org/2000/svg">
<g clip-path="url(#clip0_516_165)">
<path d="M18 9.5C18 14.465 13.965 18.5 9 18.5C4.035 18.5 0 14.465 0 9.5C0 4.535 4.035 0.5 9 0.5C9.5475 0.5 10.1025 0.5525 10.635 0.65C11.04 0.725 11.31 1.115 11.235 1.52C11.16 1.925 10.77 2.195 10.365 2.12C9.9225 2.0375 9.4575 2 9 2C4.8675 2 1.5 5.3675 1.5 9.5C1.5 13.6325 4.8675 17 9 17C13.1325 17 16.5 13.6325 16.5 9.5C16.5 9.0425 16.455 8.585 16.38 8.135C16.305 7.73 16.575 7.34 16.98 7.265C17.3925 7.19 17.775 7.46 17.85 7.865C17.9475 8.3975 18 8.9525 18 9.5ZM9.645 5.045C10.0575 5.105 10.4325 4.82 10.4925 4.4075C10.5525 3.995 10.2675 3.62 9.855 3.56C9.57 3.5225 9.285 3.5 9 3.5C5.6925 3.5 3 6.1925 3 9.5C3 12.8075 5.6925 15.5 9 15.5C12.3075 15.5 15 12.8075 15 9.5C15 9.215 14.9775 8.93 14.94 8.645C14.88 8.2325 14.505 7.9475 14.0925 8.0075C13.68 8.0675 13.395 8.4425 13.455 8.855C13.485 9.065 13.5 9.2825 13.5 9.5C13.5 11.9825 11.4825 14 9 14C6.5175 14 4.5 11.9825 4.5 9.5C4.5 7.0175 6.5175 5 9 5C9.2175 5 9.435 5.015 9.645 5.045ZM8.0025 8.3825C8.31 8.105 8.34 7.6325 8.0625 7.325C7.785 7.0175 7.3125 6.9875 7.005 7.265C6.3675 7.835 6.0075 8.6525 6.0075 9.5C6.0075 11.1575 7.35 12.5 9.0075 12.5C9.8625 12.5 10.6725 12.1325 11.2425 11.5025C11.52 11.195 11.49 10.7225 11.1825 10.445C10.875 10.1675 10.4025 10.1975 10.125 10.505C9.84 10.82 9.435 11.0075 9.0075 11.0075C8.1825 11.0075 7.5075 10.3325 7.5075 9.5075C7.5075 9.08 7.6875 8.675 8.01 8.39L8.0025 8.3825ZM9.225 8.2175C8.9325 8.51 8.9325 8.9825 9.225 9.275C9.375 9.425 9.5625 9.4925 9.7575 9.4925C9.9525 9.4925 10.14 9.4175 10.29 9.275L13.8225 5.7425H15.765C15.9675 5.7425 16.155 5.66 16.2975 5.525L17.7975 4.025C18.015 3.8075 18.075 3.485 17.9625 3.2075C17.85 2.93 17.5725 2.7425 17.2725 2.7425H15.7725V1.25C15.7725 0.95 15.5925 0.6725 15.3075 0.56C15.0225 0.44 14.7075 0.5075 14.49 0.725L12.99 2.225C12.8475 2.3675 12.7725 2.555 12.7725 2.7575V4.7L9.24 8.2325L9.225 8.2175Z" fill="#F208FD"/>
</g>
<defs>
<clipPath id="clip0_516_165">
<rect width="18" height="18" fill="white" transform="translate(0 0.5)"/>
</clipPath>
</defs>
</svg>
