<?xml version="1.0" encoding="UTF-8"?>
<svg id="Layer_1" data-name="Layer 1" xmlns="http://www.w3.org/2000/svg" viewBox="0 0 1200 181.3">
  <defs>
    <style>
      .cls-1 {
        fill: #03013f;
      }

      .cls-2 {
        fill: #0b24fb;
      }
    </style>
  </defs>
  <g>
    <g>
      <polygon class="cls-1" points="531.11 71.15 531.09 71.15 531.09 59.09 531.11 59.07 531.11 71.15"/>
      <path class="cls-1" d="M432.59,102.18c-2.25,13.56-11.93,20.99-24.38,20.99-16.7,0-28.13-12.95-28.13-33.55s11.31-32.8,28.01-32.8c12.69,0,22.37,7.53,24.38,21.11h16.08c-2.64-20.74-18.96-34.42-40.57-34.42-26,0-44.49,19.1-44.49,46.24s18.73,46.75,44.49,46.75c21.62,0,37.69-13.58,40.84-34.3h-16.22Z"/>
      <path class="cls-1" d="M512.76,122.4v-29.03c0-15.32-9.3-23.48-26.77-23.48s-27.38,8.16-28.76,19.97h15.2c.99-5.16,5.52-8.04,13.05-8.04s11.45,3.51,11.45,10.17v3.15l-17.09,2.64c-15.59,2.39-24.5,9.17-24.5,20.87,0,10.92,8.16,17.84,21.11,17.84,9.8,0,17.21-4.02,21.11-11.45,0,4.16.37,7.29,1.12,10.19h15.85c-1.26-4.79-1.77-8.67-1.77-12.83ZM496.93,112.74c0,6.39-6.78,11.67-15.83,11.67-6.29,0-9.93-2.64-9.93-7.53,0-5.4,3.63-8.16,11.31-9.42l14.45-2.15v7.43Z"/>
      <path class="cls-1" d="M547.05,50.67v20.48h.02v-20.48h-.02ZM547.07,114.48v-30.89h-.02v30.89c0,1.58.2,2.92.63,4.08-.41-1.16-.61-2.52-.61-4.08ZM548.47,120.14c.3.49.69.91,1.12,1.28-.43-.39-.79-.81-1.12-1.28Z"/>
      <path class="cls-1" d="M629.49,122.4v-29.03c0-15.32-9.3-23.48-26.77-23.48s-27.38,8.16-28.76,19.97h15.2c.99-5.16,5.52-8.04,13.05-8.04s11.45,3.51,11.45,10.17v3.15l-17.09,2.64c-15.59,2.39-24.5,9.17-24.5,20.87,0,10.92,8.16,17.84,21.11,17.84,9.8,0,17.21-4.02,21.11-11.45,0,4.16.37,7.29,1.12,10.19h15.85c-1.26-4.79-1.77-8.67-1.77-12.83ZM613.66,112.74c0,6.39-6.78,11.67-15.83,11.67-6.29,0-9.93-2.64-9.93-7.53,0-5.4,3.63-8.16,11.31-9.42l14.45-2.15v7.43Z"/>
      <path class="cls-1" d="M645.57,44.76v90.47h15.83V44.76h-15.83Z"/>
      <path class="cls-1" d="M678.25,71.15v64.08h15.83v-64.08h-15.83ZM677.5,43.12v17.48h17.33v-17.48h-17.33Z"/>
      <path class="cls-1" d="M745.33,97.39l-11.04-2.5c-6.8-1.64-9.3-3.78-9.3-7.17,0-4.28,3.75-6.66,10.92-6.66,7.67,0,12.32,2.76,13.07,7.92h14.45c-1.14-11.93-11.18-19.1-27.14-19.1s-25.76,7.17-25.76,19.1c0,9.8,6.54,16.2,20.72,19.22l10.31,2.37c6.54,1.4,8.42,3.65,8.42,7.16,0,4.91-4.16,7.55-12.32,7.55-9.17,0-14.57-3.39-15.47-9.93h-14.45c1.01,13.32,12.2,21.11,29.92,21.11s26.75-7.04,26.75-19.24c0-9.66-6.39-17.07-19.1-19.85Z"/>
      <path class="cls-1" d="M547.05,83.59v30.89c0,1.58.2,2.92.63,4.08.2.59.47,1.12.79,1.58.3.49.69.91,1.12,1.28.43.39.91.71,1.46.97.55.28,1.14.53,1.79.71,1.3.37,2.86.55,4.65.55,2.76,0,5.03-.49,7.04-1.12v12.3c-2.13,1.14-5.91,1.64-10.43,1.64-3.92,0-7.31-.45-10.19-1.38-.37-.1-.73-.22-1.08-.37-2.42-.89-4.45-2.15-6.11-3.78-.24-.24-.49-.49-.69-.73-.43-.49-.83-.99-1.24-1.54-.2-.28-.39-.57-.55-.87-1.22-2.03-2.09-4.42-2.6-7.19-.14-.79-.24-1.62-.35-2.48-.12-1.28-.18-2.62-.18-4.04v-30.55h-12.32v-12.42h12.32v-12.08l4-4,11.43-11.41.51-.51v27.99h17.48v12.42h-17.46v.02h-.02Z"/>
      <path class="cls-1" d="M531.11,114.12c0,1.42.06,2.76.18,4.04-.14-1.28-.2-2.62-.2-4.04v-30.53h-12.3v-.02h12.32v30.55Z"/>
      <path class="cls-1" d="M531.64,120.63c.51,2.76,1.38,5.16,2.6,7.19-1.24-2.03-2.11-4.42-2.6-7.19Z"/>
      <rect class="cls-1" x="547.07" y="83.57" width="17.46" height=".02"/>
      <path class="cls-1" d="M796.85,83.58v30.89c0,6.29,3.27,9.17,10.43,9.17,2.76,0,5.03-.49,7.04-1.12v12.3c-2.13,1.14-5.91,1.64-10.43,1.64-15.71,0-23-7.29-23-22.37v-30.53h-12.3v-12.44h12.3v-12.06l15.45-15.43.51-.51v27.99h17.48v12.44h-17.48Z"/>
    </g>
    <g>
      <path class="cls-1" d="M916.52,73.09s.02.04.02.06h.02v-.1l-.04.04Z"/>
      <path class="cls-1" d="M974.45,69.89c-9.03,0-16.7,4.77-20.34,13.68v-12.42h-9.44v64.08h10.07v-33.43c0-14.19,6.78-22.1,19.47-22.1,2.13,0,3.63.12,4.53.37v-9.68c-.89-.37-2.13-.49-4.28-.49Z"/>
      <path class="cls-1" d="M1018.44,69.89c-18.86,0-31.66,13.82-31.66,33.04s12.69,33.55,31.66,33.55,31.66-14.45,31.66-33.55-12.69-33.04-31.66-33.04ZM1018.44,127.94c-12.81,0-21.35-10.31-21.35-25.13s8.55-24.38,21.35-24.38,21.35,9.66,21.35,24.38-8.4,25.13-21.35,25.13Z"/>
      <path class="cls-1" d="M1109.03,71.15v34.67c0,12.95-8.79,21.86-20.72,21.86-8.93,0-13.82-4.89-13.82-14.57v-41.96h-10.05v44.59c0,12.44,8.91,20.74,21.62,20.74,10.05,0,18.96-5.03,23.61-13.46v12.2h9.44v-64.08h-10.07Z"/>
      <path class="cls-1" d="M1171.73,69.89c-10.29,0-19.08,4.65-23.12,12.56v-11.31h-9.42v89.84h10.05v-36.43c4.02,7.53,11.57,11.81,21.62,11.81,17.6,0,29.15-13.34,29.15-33.43s-11.31-33.04-28.27-33.04ZM1169.35,127.55c-12.69,0-20.6-9.3-20.6-24.26s7.77-24.62,20.6-24.62,20.36,9.17,20.36,24.26-7.67,24.62-20.36,24.62Z"/>
      <path class="cls-1" d="M928.34,88.72v5.54c0,28.52-17.7,42.22-39.58,42.22-26.51,0-43.96-19.49-43.96-46.24s18.09-46.75,43.84-46.75c21.5,0,35.68,13.56,38.2,29.65h-10.27v-.1l-.04.04c-1.79-10.53-11.08-20.3-27.63-20.3-20.62,0-33.55,15.2-33.55,37.57s12.3,36.82,33.8,36.82c15.32,0,28.03-8.18,29.27-29.41h-17.44v-9.05h27.36Z"/>
      <path class="cls-1" d="M916.57,73.05v.1h-.02s0-.04-.02-.06l.04-.04Z"/>
    </g>
  </g>
  <g>
    <polygon class="cls-2" points="0 90.66 0 136.11 45.2 181.3 90.55 181.3 136.04 135.89 136.06 136.27 136.06 181.3 226.71 181.3 271.87 136.14 271.87 135.89 181.47 135.89 181.47 80.35 136.04 125.78 136.04 135.89 45.41 135.89 45.41 45.42 45.24 45.42 0 90.66"/>
    <polygon class="cls-2" points="272.1 0 226.75 0 181.47 45.42 181.47 0 90.67 0 45.24 45.42 45.41 45.42 136.04 45.42 136.04 100.64 181.47 55.21 181.47 45.42 271.87 45.42 271.87 135.89 271.87 136.14 317.3 90.71 317.3 45.19 272.1 0"/>
  </g>
</svg>