<?xml version="1.0" encoding="UTF-8"?>
<svg id="Layer_1" data-name="Layer 1" xmlns="http://www.w3.org/2000/svg" viewBox="0 0 1200 556.16">
  <defs>
    <style>
      .cls-1 {
        fill: #03013f;
      }

      .cls-2 {
        fill: #0b24fb;
      }
    </style>
  </defs>
  <g>
    <g>
      <polygon class="cls-1" points="240.48 427.29 240.45 427.29 240.45 409.99 240.48 409.96 240.48 427.29"/>
      <path class="cls-1" d="M99.14,471.81c-3.23,19.45-17.12,30.11-34.97,30.11-23.96,0-40.36-18.58-40.36-48.13s16.22-47.05,40.18-47.05c18.2,0,32.09,10.8,34.97,30.28h23.06c-3.79-29.76-27.2-49.38-58.2-49.38-37.3,0-63.82,27.4-63.82,66.33s26.87,67.06,63.82,67.06c31.01,0,54.07-19.48,58.58-49.21h-23.26Z"/>
      <path class="cls-1" d="M214.15,500.81v-41.64c0-21.98-13.34-33.69-38.41-33.69s-39.28,11.71-41.26,28.65h21.81c1.43-7.4,7.92-11.53,18.72-11.53s16.42,5.04,16.42,14.59v4.51l-24.52,3.79c-22.36,3.44-35.14,13.16-35.14,29.93,0,15.66,11.71,25.59,30.28,25.59,14.06,0,24.69-5.77,30.28-16.42,0,5.97.52,10.45,1.6,14.62h22.74c-1.81-6.87-2.53-12.43-2.53-18.4ZM191.44,486.95c0,9.17-9.73,16.74-22.71,16.74-9.03,0-14.24-3.78-14.24-10.8,0-7.74,5.21-11.7,16.22-13.51l20.73-3.09v10.66Z"/>
      <path class="cls-1" d="M263.33,397.91v29.38h.03v-29.38h-.03ZM263.36,489.45v-44.32h-.03v44.32c0,2.27.29,4.19.9,5.85-.58-1.66-.87-3.61-.87-5.85ZM265.37,497.57c.44.7.99,1.31,1.6,1.83-.61-.55-1.14-1.16-1.6-1.83Z"/>
      <path class="cls-1" d="M381.61,500.81v-41.64c0-21.98-13.34-33.69-38.41-33.69s-39.28,11.71-41.26,28.65h21.81c1.43-7.4,7.92-11.53,18.72-11.53s16.42,5.04,16.42,14.59v4.51l-24.52,3.79c-22.36,3.44-35.14,13.16-35.14,29.93,0,15.66,11.71,25.59,30.28,25.59,14.06,0,24.69-5.77,30.28-16.42,0,5.97.52,10.45,1.6,14.62h22.74c-1.81-6.87-2.53-12.43-2.53-18.4ZM358.9,486.95c0,9.17-9.72,16.74-22.71,16.74-9.03,0-14.24-3.78-14.24-10.8,0-7.74,5.21-11.7,16.22-13.51l20.73-3.09v10.66Z"/>
      <path class="cls-1" d="M404.67,389.43v129.77h22.71v-129.77h-22.71Z"/>
      <path class="cls-1" d="M451.55,427.29v91.92h22.71v-91.92h-22.71ZM450.47,387.08v25.07h24.87v-25.07h-24.87Z"/>
      <path class="cls-1" d="M547.78,464.93l-15.84-3.58c-9.75-2.36-13.34-5.42-13.34-10.28,0-6.14,5.39-9.55,15.66-9.55,11.01,0,17.67,3.96,18.75,11.36h20.73c-1.63-17.12-16.04-27.4-38.93-27.4s-36.95,10.28-36.95,27.4c0,14.06,9.38,23.24,29.73,27.57l14.79,3.41c9.38,2.01,12.08,5.24,12.08,10.28,0,7.05-5.97,10.83-17.67,10.83-13.16,0-20.91-4.86-22.19-14.24h-20.73c1.46,19.1,17.5,30.28,42.92,30.28s38.38-10.1,38.38-27.6c0-13.86-9.17-24.49-27.4-28.48Z"/>
      <path class="cls-1" d="M263.33,445.13v44.32c0,2.27.29,4.19.9,5.85.29.84.67,1.6,1.14,2.27.44.7.99,1.31,1.6,1.83.61.55,1.31,1.02,2.1,1.4.79.41,1.63.76,2.56,1.02,1.86.52,4.11.79,6.67.79,3.96,0,7.22-.7,10.1-1.6v17.65c-3.06,1.63-8.47,2.36-14.97,2.36-5.62,0-10.48-.64-14.62-1.98-.52-.15-1.05-.32-1.54-.52-3.46-1.28-6.38-3.09-8.76-5.42-.35-.35-.7-.7-.99-1.05-.61-.7-1.19-1.43-1.78-2.21-.29-.41-.55-.82-.79-1.25-1.75-2.91-3-6.35-3.73-10.31-.2-1.14-.35-2.33-.49-3.55-.17-1.83-.26-3.76-.26-5.79v-43.82h-17.67v-17.82h17.67v-17.32l5.74-5.74,16.39-16.36.73-.73v40.15h25.07v17.82h-25.04v.03h-.03Z"/>
      <path class="cls-1" d="M240.48,488.93c0,2.04.09,3.96.26,5.79-.2-1.83-.29-3.76-.29-5.79v-43.79h-17.64v-.03h17.67v43.82Z"/>
      <path class="cls-1" d="M241.23,498.27c.73,3.96,1.98,7.4,3.73,10.31-1.78-2.91-3.03-6.35-3.73-10.31Z"/>
      <rect class="cls-1" x="263.36" y="445.11" width="25.04" height=".03"/>
      <path class="cls-1" d="M621.68,445.12v44.32c0,9.03,4.69,13.16,14.97,13.16,3.96,0,7.22-.7,10.1-1.6v17.64c-3.06,1.63-8.47,2.36-14.97,2.36-22.54,0-32.99-10.45-32.99-32.09v-43.79h-17.64v-17.85h17.64v-17.3l22.16-22.13.73-.73v40.15h25.07v17.85h-25.07Z"/>
    </g>
    <g>
      <path class="cls-1" d="M793.35,430.08s.03.06.03.09h.03v-.15l-.06.06Z"/>
      <path class="cls-1" d="M876.45,425.48c-12.96,0-23.96,6.84-29.18,19.62v-17.82h-13.54v91.92h14.44v-47.96c0-20.35,9.73-31.71,27.92-31.71,3.06,0,5.21.17,6.49.52v-13.89c-1.28-.52-3.06-.7-6.14-.7Z"/>
      <path class="cls-1" d="M939.55,425.48c-27.05,0-45.42,19.83-45.42,47.4s18.2,48.13,45.42,48.13,45.42-20.73,45.42-48.13-18.2-47.4-45.42-47.4ZM939.55,508.75c-18.37,0-30.63-14.79-30.63-36.05s12.26-34.97,30.63-34.97,30.63,13.86,30.63,34.97-12.05,36.05-30.63,36.05Z"/>
      <path class="cls-1" d="M1069.5,427.29v49.73c0,18.58-12.61,31.36-29.73,31.36-12.81,0-19.83-7.02-19.83-20.91v-60.18h-14.41v63.97c0,17.85,12.78,29.76,31.01,29.76,14.41,0,27.2-7.22,33.86-19.3v17.5h13.54v-91.92h-14.44Z"/>
      <path class="cls-1" d="M1159.44,425.48c-14.76,0-27.37,6.67-33.16,18.02v-16.22h-13.51v128.87h14.41v-52.27c5.77,10.8,16.6,16.95,31.01,16.95,25.24,0,41.81-19.13,41.81-47.96s-16.22-47.4-40.56-47.4ZM1156.03,508.2c-18.2,0-29.55-13.34-29.55-34.79s11.15-35.32,29.55-35.32,29.2,13.16,29.2,34.79-11.01,35.32-29.2,35.32Z"/>
      <path class="cls-1" d="M810.3,452.5v7.95c0,40.91-25.39,60.56-56.78,60.56-38.03,0-63.07-27.95-63.07-66.33s25.94-67.06,62.89-67.06c30.83,0,51.19,19.45,54.8,42.54h-14.73v-.15l-.06.06c-2.56-15.11-15.9-29.12-39.63-29.12-29.58,0-48.13,21.81-48.13,53.9s17.64,52.82,48.48,52.82c21.98,0,40.21-11.73,41.99-42.19h-25.01v-12.99h39.25Z"/>
      <path class="cls-1" d="M793.41,430.02v.15h-.03s0-.06-.03-.09l.06-.06Z"/>
    </g>
  </g>
  <g>
    <polygon class="cls-2" points="372.87 129.56 372.87 194.51 437.46 259.09 502.27 259.09 567.29 194.76 567.29 194.2 567.31 259.1 696.86 259.1 761.39 194.56 761.39 194.21 632.2 194.21 632.2 114.83 567.29 179.75 567.29 194.2 437.76 194.2 437.76 64.91 437.53 64.91 372.87 129.56"/>
    <polygon class="cls-2" points="761.73 0 696.91 0 632.2 64.91 632.2 0 502.44 0 437.53 64.91 437.76 64.91 567.29 64.91 567.29 143.82 632.2 78.91 632.2 64.91 761.39 64.91 761.39 194.2 761.39 194.56 826.32 129.64 826.32 64.58 761.73 0"/>
  </g>
</svg>