<svg width="36" height="35" viewBox="0 0 36 35" fill="none" xmlns="http://www.w3.org/2000/svg">
<circle opacity="0.2" cx="18.1599" cy="17.5" r="17.5" fill="#FF9500"/>
<mask id="mask0_68_955" style="mask-type:alpha" maskUnits="userSpaceOnUse" x="9" y="8" width="19" height="18">
<rect x="9.65991" y="8" width="18" height="18" fill="#D9D9D9"/>
</mask>
<g mask="url(#mask0_68_955)">
<path d="M22.7849 23.75H23.5349V21.875H25.4099V21.125H23.5349V19.25H22.7849V21.125H20.9099V21.875H22.7849V23.75ZM23.1599 25.25C22.1224 25.25 21.238 24.8844 20.5068 24.1531C19.7755 23.4219 19.4099 22.5375 19.4099 21.5C19.4099 20.4625 19.7755 19.5781 20.5068 18.8469C21.238 18.1156 22.1224 17.75 23.1599 17.75C24.1974 17.75 25.0818 18.1156 25.813 18.8469C26.5443 19.5781 26.9099 20.4625 26.9099 21.5C26.9099 22.5375 26.5443 23.4219 25.813 24.1531C25.0818 24.8844 24.1974 25.25 23.1599 25.25ZM14.9099 14.75H22.4099V13.25H14.9099V14.75ZM18.4162 23.75H13.4099C12.9974 23.75 12.6443 23.6031 12.3505 23.3094C12.0568 23.0156 11.9099 22.6625 11.9099 22.25V11.75C11.9099 11.3375 12.0568 10.9844 12.3505 10.6906C12.6443 10.3969 12.9974 10.25 13.4099 10.25H23.9099C24.3224 10.25 24.6755 10.3969 24.9693 10.6906C25.263 10.9844 25.4099 11.3375 25.4099 11.75V16.775C25.0474 16.6 24.6818 16.4688 24.313 16.3813C23.9443 16.2938 23.5599 16.25 23.1599 16.25C23.0224 16.25 22.8943 16.2531 22.7755 16.2594C22.6568 16.2656 22.5349 16.2812 22.4099 16.3062V16.25H14.9099V17.75H19.5037C19.2787 17.9625 19.0755 18.1937 18.8943 18.4438C18.713 18.6938 18.5537 18.9625 18.4162 19.25H14.9099V20.75H17.9662C17.9412 20.875 17.9255 20.9969 17.9193 21.1156C17.913 21.2344 17.9099 21.3625 17.9099 21.5C17.9099 21.9125 17.9474 22.2969 18.0224 22.6531C18.0974 23.0094 18.2287 23.375 18.4162 23.75Z" fill="#FF9500"/>
</g>
</svg>
