<svg width="18" height="19" viewBox="0 0 18 19" fill="none" xmlns="http://www.w3.org/2000/svg">
<g clip-path="url(#clip0_517_714)">
<path d="M14.6249 18.5C14.475 18.5001 14.3285 18.4553 14.2043 18.3713C14.0801 18.2874 13.9839 18.1681 13.9282 18.029L13.2952 16.4442L11.7081 15.776C11.572 15.7159 11.4567 15.6169 11.3766 15.4914C11.2966 15.366 11.2554 15.2197 11.2582 15.0709C11.261 14.9221 11.3077 14.7775 11.3924 14.6551C11.4771 14.5328 11.5961 14.4382 11.7344 14.3832L13.3004 13.79L13.9282 12.221C13.9859 12.0839 14.0828 11.9669 14.2067 11.8846C14.3307 11.8023 14.4761 11.7584 14.6249 11.7584C14.7737 11.7584 14.9191 11.8023 15.0431 11.8846C15.167 11.9669 15.2639 12.0839 15.3217 12.221L15.9524 13.796L17.5274 14.4267C17.6648 14.4842 17.7821 14.581 17.8646 14.705C17.9472 14.829 17.9912 14.9746 17.9912 15.1235C17.9912 15.2724 17.9472 15.418 17.8646 15.542C17.7821 15.666 17.6648 15.7628 17.5274 15.8202L15.9524 16.451L15.3217 18.026C15.2664 18.1657 15.1704 18.2856 15.0461 18.3701C14.9219 18.4546 14.7752 18.4999 14.6249 18.5ZM7.4999 16.25C7.17588 16.2539 6.85931 16.1528 6.59757 15.9617C6.33583 15.7707 6.14298 15.5 6.0479 15.1902L4.8374 11.405L1.04015 10.1345C0.733672 10.0321 0.467688 9.83485 0.280615 9.57137C0.0935426 9.30788 -0.00493534 8.99174 -0.000594863 8.66863C0.00374562 8.34551 0.11068 8.03214 0.304763 7.77377C0.498846 7.51541 0.770031 7.32542 1.07915 7.23125L4.8464 6.08075L6.1154 2.29025C6.20975 1.9789 6.40492 1.70775 6.67021 1.51944C6.9355 1.33113 7.25586 1.23635 7.5809 1.25C7.90497 1.25044 8.22019 1.35582 8.47937 1.55037C8.73855 1.74492 8.92775 2.01818 9.01865 2.32925L10.1677 6.0905L13.9402 7.298C14.2444 7.40006 14.509 7.59514 14.6964 7.85568C14.8838 8.11622 14.9846 8.42905 14.9846 8.75C14.9846 9.07094 14.8838 9.38378 14.6964 9.64432C14.509 9.90486 14.2444 10.0999 13.9402 10.202L10.1609 11.411L8.9519 15.1902C8.85682 15.5 8.66397 15.7707 8.40223 15.9617C8.14049 16.1528 7.82392 16.2539 7.4999 16.25ZM7.5839 2.76725L6.1499 6.923C6.11209 7.03643 6.04771 7.13918 5.96213 7.22268C5.87654 7.30618 5.77223 7.368 5.6579 7.403L1.51715 8.666L5.6729 10.1037C5.78471 10.141 5.88616 10.2041 5.96903 10.2879C6.05191 10.3717 6.11387 10.4738 6.1499 10.586L7.4774 14.7335L8.8499 10.586C8.88631 10.4721 8.94941 10.3686 9.03395 10.284C9.11849 10.1995 9.22202 10.1364 9.3359 10.1L13.4834 8.77325C13.4887 8.77178 13.4938 8.7695 13.4984 8.7665L9.3359 7.4C9.22038 7.36306 9.11555 7.29866 9.03038 7.21231C8.94521 7.12597 8.88225 7.02026 8.8469 6.90425L7.5839 2.76725ZM15.3749 5.75C15.2077 5.74999 15.0453 5.69412 14.9135 5.59126C14.7817 5.48839 14.688 5.34443 14.6474 5.18225L14.3797 4.10975L13.3049 3.821C13.1434 3.7776 13.001 3.68144 12.9004 3.54782C12.7997 3.4142 12.7467 3.25078 12.7496 3.08354C12.7526 2.9163 12.8113 2.75484 12.9165 2.62483C13.0218 2.49482 13.1674 2.40371 13.3304 2.366L14.3804 2.12225L14.6474 1.06775C14.688 0.905577 14.7817 0.761636 14.9135 0.658787C15.0453 0.555937 15.2077 0.500076 15.3749 0.500076C15.5421 0.500076 15.7045 0.555937 15.8363 0.658787C15.9681 0.761636 16.0618 0.905577 16.1024 1.06775L16.3679 2.13125L17.4314 2.3975C17.5936 2.43814 17.7375 2.5318 17.8404 2.66361C17.9432 2.79542 17.9991 2.95781 17.9991 3.125C17.9991 3.29218 17.9432 3.45458 17.8404 3.58638C17.7375 3.71819 17.5936 3.81185 17.4314 3.8525L16.3679 4.11875L16.1024 5.18225C16.0618 5.34443 15.9681 5.48839 15.8363 5.59126C15.7045 5.69412 15.5421 5.74999 15.3749 5.75Z" fill="#F208FD"/>
</g>
<defs>
<clipPath id="clip0_517_714">
<rect width="18" height="18" fill="white" transform="translate(0 0.5)"/>
</clipPath>
</defs>
</svg>
