<svg width="36" height="35" viewBox="0 0 36 35" fill="none" xmlns="http://www.w3.org/2000/svg">
<circle opacity="0.2" cx="17.8198" cy="17.5" r="17.5" fill="#AF52DE"/>
<mask id="mask0_68_964" style="mask-type:alpha" maskUnits="userSpaceOnUse" x="9" y="8" width="19" height="18">
<rect x="9.31982" y="8" width="18" height="18" fill="#D9D9D9"/>
</mask>
<g mask="url(#mask0_68_964)">
<path d="M25.3698 18.6875L20.0073 24.05C19.8573 24.2 19.6886 24.3125 19.5011 24.3875C19.3136 24.4625 19.1261 24.5 18.9386 24.5C18.7511 24.5 18.5636 24.4625 18.3761 24.3875C18.1886 24.3125 18.0198 24.2 17.8698 24.05L11.2511 17.4312C11.1136 17.2937 11.0073 17.1344 10.9323 16.9531C10.8573 16.7719 10.8198 16.5813 10.8198 16.3813V11C10.8198 10.5875 10.9667 10.2344 11.2604 9.94063C11.5542 9.64688 11.9073 9.5 12.3198 9.5H17.7011C17.9011 9.5 18.0948 9.54062 18.2823 9.62188C18.4698 9.70313 18.6323 9.8125 18.7698 9.95L25.3698 16.5688C25.5198 16.7188 25.6292 16.8875 25.6979 17.075C25.7667 17.2625 25.8011 17.45 25.8011 17.6375C25.8011 17.825 25.7667 18.0094 25.6979 18.1906C25.6292 18.3719 25.5198 18.5375 25.3698 18.6875ZM14.1948 14C14.5073 14 14.7729 13.8906 14.9917 13.6719C15.2104 13.4531 15.3198 13.1875 15.3198 12.875C15.3198 12.5625 15.2104 12.2969 14.9917 12.0781C14.7729 11.8594 14.5073 11.75 14.1948 11.75C13.8823 11.75 13.6167 11.8594 13.3979 12.0781C13.1792 12.2969 13.0698 12.5625 13.0698 12.875C13.0698 13.1875 13.1792 13.4531 13.3979 13.6719C13.6167 13.8906 13.8823 14 14.1948 14Z" fill="#AF52DE"/>
</g>
</svg>
