<svg width="36" height="35" viewBox="0 0 36 35" fill="none" xmlns="http://www.w3.org/2000/svg">
<circle opacity="0.2" cx="18.4801" cy="17.5" r="17.5" fill="#34C759"/>
<mask id="mask0_68_973" style="mask-type:alpha" maskUnits="userSpaceOnUse" x="9" y="8" width="19" height="18">
<rect x="9.9801" y="8" width="18" height="18" fill="#D9D9D9"/>
</mask>
<g mask="url(#mask0_68_973)">
<path d="M18.2301 24.2938V17.4312L12.2301 13.9625V19.9813C12.2301 20.2563 12.2957 20.5063 12.427 20.7313C12.5582 20.9563 12.7426 21.1375 12.9801 21.275L18.2301 24.2938ZM19.7301 24.2938L24.9801 21.275C25.2176 21.1375 25.402 20.9563 25.5332 20.7313C25.6645 20.5063 25.7301 20.2563 25.7301 19.9813V13.9625L19.7301 17.4312V24.2938ZM22.7114 13.9812L24.9239 12.6875L19.7301 9.70625C19.4926 9.56875 19.2426 9.5 18.9801 9.5C18.7176 9.5 18.4676 9.56875 18.2301 9.70625L16.7489 10.55L22.7114 13.9812ZM18.9801 16.1375L21.2114 14.8625L15.2676 11.4125L13.0176 12.7063L18.9801 16.1375Z" fill="#34C759"/>
</g>
</svg>
