<svg width="18" height="19" viewBox="0 0 18 19" fill="none" xmlns="http://www.w3.org/2000/svg">
<g clip-path="url(#clip0_517_185)">
<path d="M11.25 5C11.25 5.41475 10.914 5.75 10.5 5.75H7.5C7.086 5.75 6.75 5.41475 6.75 5C6.75 4.58525 7.086 4.25 7.5 4.25H10.5C10.914 4.25 11.25 4.58525 11.25 5ZM10.5 8H7.5C7.086 8 6.75 8.33525 6.75 8.75C6.75 9.16475 7.086 9.5 7.5 9.5H10.5C10.914 9.5 11.25 9.16475 11.25 8.75C11.25 8.33525 10.914 8 10.5 8ZM9 17H3.75C2.5095 17 1.5 15.9905 1.5 14.75V4.25C1.5 3.0095 2.5095 2 3.75 2H10.5C11.7405 2 12.75 3.0095 12.75 4.25V8.375C12.75 8.78975 13.086 9.125 13.5 9.125C13.914 9.125 14.25 8.78975 14.25 8.375V4.25C14.25 2.18225 12.5677 0.5 10.5 0.5H3.75C1.68225 0.5 0 2.18225 0 4.25V14.75C0 16.8177 1.68225 18.5 3.75 18.5H9C9.414 18.5 9.75 18.1647 9.75 17.75C9.75 17.3353 9.414 17 9 17ZM18 12.875C18 14.8625 15.6645 17.288 14.5335 18.1505C14.2298 18.383 13.8645 18.4993 13.5 18.4993C13.1355 18.4993 12.7702 18.383 12.4665 18.1505C11.3355 17.288 9 14.8625 9 12.875C9 11.4275 10.1775 10.25 11.625 10.25C12.3593 10.25 13.023 10.5522 13.5 11.0398C13.977 10.553 14.6407 10.25 15.375 10.25C16.8225 10.25 18 11.4275 18 12.875ZM16.5 12.875C16.5 12.2548 15.9952 11.75 15.375 11.75C14.7548 11.75 14.25 12.2548 14.25 12.875C14.25 13.2898 13.914 13.625 13.5 13.625C13.086 13.625 12.75 13.2898 12.75 12.875C12.75 12.2548 12.2452 11.75 11.625 11.75C11.0048 11.75 10.5 12.2548 10.5 12.875C10.5 14.1327 12.3435 16.1713 13.3762 16.958C13.4497 17.0135 13.551 17.0135 13.6238 16.958C14.6565 16.1705 16.5 14.132 16.5 12.875ZM4.125 3.875C3.504 3.875 3 4.379 3 5C3 5.621 3.504 6.125 4.125 6.125C4.746 6.125 5.25 5.621 5.25 5C5.25 4.379 4.746 3.875 4.125 3.875ZM4.125 11.375C3.504 11.375 3 11.879 3 12.5C3 13.121 3.504 13.625 4.125 13.625C4.746 13.625 5.25 13.121 5.25 12.5C5.25 11.879 4.746 11.375 4.125 11.375ZM4.125 7.625C3.504 7.625 3 8.129 3 8.75C3 9.371 3.504 9.875 4.125 9.875C4.746 9.875 5.25 9.371 5.25 8.75C5.25 8.129 4.746 7.625 4.125 7.625Z" fill="white"/>
</g>
<defs>
<clipPath id="clip0_517_185">
<rect width="18" height="18" fill="white" transform="translate(0 0.5)"/>
</clipPath>
</defs>
</svg>
